<svg width="123" height="36" viewBox="0 0 123 36" fill="none" xmlns="http://www.w3.org/2000/svg">
    <path d="M0.998627 28V1.81818H17.7714V5.79404H5.74153V12.902H16.6208V16.8778H5.74153V28H0.998627ZM21.5278 28V8.36364H26.1557V28H21.5278ZM23.8545 5.57671C23.1216 5.57671 22.4909 5.33381 21.9625 4.84801C21.4341 4.35369 21.1699 3.76136 21.1699 3.07102C21.1699 2.37216 21.4341 1.77983 21.9625 1.29403C22.4909 0.799716 23.1216 0.552557 23.8545 0.552557C24.596 0.552557 25.2267 0.799716 25.7466 1.29403C26.275 1.77983 26.5392 2.37216 26.5392 3.07102C26.5392 3.76136 26.275 4.35369 25.7466 4.84801C25.2267 5.33381 24.596 5.57671 23.8545 5.57671ZM37.8415 28.3452C36.2989 28.3452 34.9182 27.9489 33.6994 27.1563C32.4807 26.3636 31.5176 25.2131 30.8102 23.7045C30.1029 22.196 29.7492 20.3636 29.7492 18.2074C29.7492 16.0256 30.1071 14.1847 30.823 12.6847C31.5475 11.1761 32.5233 10.0384 33.7506 9.27131C34.9779 8.49574 36.3457 8.10796 37.8543 8.10796C39.0048 8.10796 39.9509 8.30398 40.6923 8.69602C41.4338 9.07955 42.0219 9.54404 42.4565 10.0895C42.8912 10.6264 43.2279 11.1335 43.4665 11.6108H43.6583V1.81818H48.2989V28H43.7477V24.9063H43.4665C43.2279 25.3835 42.8827 25.8906 42.431 26.4276C41.9793 26.956 41.3827 27.4077 40.6412 27.7827C39.8997 28.1577 38.9665 28.3452 37.8415 28.3452ZM39.1327 24.5483C40.1128 24.5483 40.948 24.2841 41.6384 23.7557C42.3287 23.2188 42.8529 22.473 43.2108 21.5185C43.5688 20.5639 43.7477 19.4517 43.7477 18.1818C43.7477 16.9119 43.5688 15.8082 43.2108 14.8707C42.8614 13.9332 42.3415 13.2045 41.6511 12.6847C40.9693 12.1648 40.1298 11.9048 39.1327 11.9048C38.1014 11.9048 37.2406 12.1733 36.5503 12.7102C35.86 13.2472 35.3401 13.9886 34.9906 14.9347C34.6412 15.8807 34.4665 16.9631 34.4665 18.1818C34.4665 19.4091 34.6412 20.5043 34.9906 21.4673C35.3486 22.4219 35.8727 23.1761 36.5631 23.7301C37.2619 24.2756 38.1185 24.5483 39.1327 24.5483ZM61.5635 28.3835C59.5948 28.3835 57.8945 27.9744 56.4627 27.1563C55.0394 26.3295 53.9442 25.1619 53.1772 23.6534C52.4101 22.1364 52.0266 20.3509 52.0266 18.2969C52.0266 16.277 52.4101 14.5043 53.1772 12.9787C53.9527 11.4446 55.0351 10.2514 56.4243 9.39915C57.8135 8.53835 59.4456 8.10796 61.3206 8.10796C62.5308 8.10796 63.6729 8.30398 64.7468 8.69602C65.8291 9.07955 66.7837 9.67614 67.6104 10.4858C68.4456 11.2955 69.1019 12.3267 69.5791 13.5795C70.0564 14.8239 70.2951 16.3068 70.2951 18.0284V19.4474H54.1999V16.3281H65.859C65.8505 15.4418 65.6587 14.6534 65.2837 13.9631C64.9087 13.2642 64.3845 12.7145 63.7112 12.3139C63.0465 11.9134 62.2709 11.7131 61.3845 11.7131C60.4385 11.7131 59.6076 11.9432 58.8916 12.4034C58.1757 12.8551 57.6175 13.4517 57.2169 14.1932C56.8249 14.9261 56.6246 15.7315 56.6161 16.6094V19.3324C56.6161 20.4744 56.8249 21.4545 57.2425 22.2727C57.6601 23.0824 58.2439 23.7045 58.9939 24.1392C59.7439 24.5653 60.6218 24.7784 61.6274 24.7784C62.3007 24.7784 62.9101 24.6847 63.4556 24.4972C64.001 24.3011 64.474 24.0156 64.8746 23.6406C65.2752 23.2656 65.5777 22.8011 65.7823 22.2472L70.1033 22.733C69.8306 23.875 69.3107 24.8722 68.5436 25.7244C67.7851 26.5682 66.8135 27.2244 65.6289 27.6932C64.4442 28.1534 63.0891 28.3835 61.5635 28.3835ZM78.478 1.81818V28H73.8502V1.81818H78.478ZM82.8769 28V8.36364H87.5047V28H82.8769ZM85.2036 5.57671C84.4707 5.57671 83.84 5.33381 83.3116 4.84801C82.7832 4.35369 82.519 3.76136 82.519 3.07102C82.519 2.37216 82.7832 1.77983 83.3116 1.29403C83.84 0.799716 84.4707 0.552557 85.2036 0.552557C85.9451 0.552557 86.5758 0.799716 87.0957 1.29403C87.6241 1.77983 87.8883 2.37216 87.8883 3.07102C87.8883 3.76136 87.6241 4.35369 87.0957 4.84801C86.5758 5.33381 85.9451 5.57671 85.2036 5.57671ZM101.709 8.36364V11.9432H90.4207V8.36364H101.709ZM93.2076 3.65909H97.8354V22.0938C97.8354 22.7159 97.9292 23.1932 98.1167 23.5256C98.3127 23.8494 98.5684 24.071 98.8837 24.1903C99.1991 24.3097 99.5485 24.3693 99.932 24.3693C100.222 24.3693 100.486 24.348 100.725 24.3054C100.972 24.2628 101.159 24.2244 101.287 24.1903L102.067 27.8082C101.82 27.8935 101.466 27.9872 101.006 28.0895C100.554 28.1918 100 28.2514 99.344 28.2685C98.1849 28.3026 97.1408 28.1278 96.2119 27.7443C95.2829 27.3523 94.5457 26.7472 94.0002 25.929C93.4633 25.1108 93.1991 24.0881 93.2076 22.8608V3.65909ZM108.096 35.3636C107.465 35.3636 106.881 35.3125 106.344 35.2102C105.816 35.1165 105.394 35.0057 105.079 34.8778L106.153 31.2727C106.826 31.4688 107.427 31.5625 107.955 31.554C108.484 31.5455 108.948 31.3793 109.349 31.0554C109.758 30.7401 110.103 30.2117 110.384 29.4702L110.78 28.4091L103.66 8.36364H108.569L113.094 23.1932H113.299L117.837 8.36364H122.759L114.897 30.3778C114.53 31.4176 114.045 32.3082 113.44 33.0497C112.834 33.7997 112.093 34.3707 111.215 34.7628C110.346 35.1634 109.306 35.3636 108.096 35.3636Z"
          fill="white"/>
</svg>
